<svg width="20" height="25" viewBox="0 0 20 25" fill="none" xmlns="http://www.w3.org/2000/svg">
<path d="M3.8793 7.65235C3.76055 8.919 3.67722 11.1606 4.42512 12.1148C4.42512 12.1148 4.07304 9.65232 7.22925 6.56278C8.50006 5.31905 8.79381 3.62741 8.35006 2.35868C8.09798 1.63994 7.63757 1.0462 7.23758 0.631626C7.00425 0.38788 7.18341 -0.0141972 7.52299 0.000385945C9.57713 0.0920512 12.9062 0.662875 14.3208 4.21282C14.9416 5.77113 14.9875 7.38152 14.6916 9.019C14.5041 10.0648 13.8375 12.3898 15.3583 12.6752C16.4437 12.8794 16.9687 12.0169 17.2041 11.396C17.302 11.1377 17.6416 11.0731 17.8249 11.2794C19.6582 13.3648 19.8145 15.821 19.4353 17.9355C18.702 22.023 14.5625 24.9979 10.45 24.9979C5.31261 24.9979 1.22309 22.0584 0.162688 16.7376C-0.264388 14.5897 -0.0477247 10.3398 3.26472 7.33986C3.51055 7.11486 3.91263 7.31486 3.8793 7.65235Z" fill="url(#paint0_radial_1036_91)"/>
<path d="M12.327 15.296C10.4333 12.8586 11.2812 10.0774 11.7457 8.96905C11.8082 8.82322 11.6416 8.68573 11.5103 8.77531C10.6958 9.32947 9.02703 10.6336 8.24996 12.469C7.19789 14.9502 7.27289 16.1648 7.8958 17.6481C8.27079 18.5418 7.83538 18.7314 7.61664 18.7647C7.40414 18.7981 7.20831 18.6564 7.05206 18.5085C6.60257 18.077 6.28225 17.5287 6.12708 16.9252C6.09374 16.796 5.925 16.7606 5.84791 16.8668C5.26459 17.6731 4.96251 18.9668 4.94793 19.8814C4.9021 22.7084 7.23748 25.0001 10.0624 25.0001C13.6228 25.0001 16.2165 21.0626 14.1707 17.771C13.577 16.8127 13.0186 16.1856 12.327 15.296Z" fill="url(#paint1_radial_1036_91)"/>
<defs>
<radialGradient id="paint0_radial_1036_91" cx="0" cy="0" r="1" gradientUnits="userSpaceOnUse" gradientTransform="translate(9.4325 25.0627) rotate(-179.751) scale(14.7055 24.1288)">
<stop offset="0.314" stop-color="#FF9800"/>
<stop offset="0.662" stop-color="#FF6D00"/>
<stop offset="0.972" stop-color="#F44336"/>
</radialGradient>
<radialGradient id="paint1_radial_1036_91" cx="0" cy="0" r="1" gradientUnits="userSpaceOnUse" gradientTransform="translate(10.2583 10.4291) rotate(90.5787) scale(15.3865 11.5795)">
<stop offset="0.214" stop-color="#FFF176"/>
<stop offset="0.328" stop-color="#FFF27D"/>
<stop offset="0.487" stop-color="#FFF48F"/>
<stop offset="0.672" stop-color="#FFF7AD"/>
<stop offset="0.793" stop-color="#FFF9C4"/>
<stop offset="0.822" stop-color="#FFF8BD" stop-opacity="0.804"/>
<stop offset="0.863" stop-color="#FFF6AB" stop-opacity="0.529"/>
<stop offset="0.91" stop-color="#FFF38D" stop-opacity="0.209"/>
<stop offset="0.941" stop-color="#FFF176" stop-opacity="0"/>
</radialGradient>
</defs>
</svg>
