<svg width="28" height="22" viewBox="0 0 28 22" fill="none" xmlns="http://www.w3.org/2000/svg">
<path d="M1.55556 8.42639C1.55556 8.42639 0 5.60695 0 2.49584C0 -0.615276 2.94467 -0.259054 3.88889 0.599613C4.89378 1.51272 6.22222 4.44028 6.22222 4.44028L5.44444 4.97539C5.44444 4.97539 4.79656 3.80095 4.01878 2.77972C3.241 1.7585 1.87989 2.04628 1.87989 3.60184C1.87989 5.15739 3.11111 8.13472 3.11111 8.13472L1.55556 8.42639ZM26.4444 8.42639C26.4444 8.42639 28 5.60695 28 2.49584C28 -0.615276 25.0553 -0.259054 24.1111 0.599613C23.1062 1.51272 21.7778 4.44028 21.7778 4.44028L22.5556 4.97539C22.5556 4.97539 23.2034 3.80095 23.9812 2.77972C24.759 1.7585 26.1201 2.04628 26.1201 3.60184C26.1201 5.15739 24.8889 8.13472 24.8889 8.13472L26.4444 8.42639Z" fill="#C1694F"/>
<path d="M25.8517 9.50529C25.8517 13.1873 23.6296 21.3571 14 21.3571C4.3703 21.3571 2.14819 13.1873 2.14819 9.50529C2.14819 7.28318 6.63597 5.80151 14 5.80151C21.364 5.80151 25.8517 7.28318 25.8517 9.50529Z" fill="#C1694F"/>
<path d="M27.222 7.01152C27.222 12.0235 21.8095 13.5791 13.9998 13.5791C6.19014 13.5791 0.777588 12.0235 0.777588 7.01152C0.777588 4.41841 5.78492 2.69019 13.9998 2.69019C22.2147 2.69019 27.222 4.41841 27.222 7.01152Z" fill="#D99E82"/>
<path d="M14 10.4681C20.8462 10.4681 26.3962 8.92056 26.3962 7.01162C26.3962 5.10268 20.8462 3.55518 14 3.55518C7.15374 3.55518 1.60376 5.10268 1.60376 7.01162C1.60376 8.92056 7.15374 10.4681 14 10.4681Z" fill="#662113"/>
<path d="M13.2225 18.238C10.3867 18.1984 7.89239 17.937 5.89972 17.3529C6.73239 18.2534 7.7319 18.9838 8.84283 19.5035C10.1783 19.6793 11.6491 19.7687 13.2225 19.7913V18.238ZM14.7781 18.238V19.7921C16.3507 19.7695 17.8215 19.6808 19.1577 19.5043C20.2685 18.9843 21.268 18.254 22.1008 17.3537C20.1082 17.9363 17.6138 18.1976 14.7781 18.238ZM7.10139 14.5312C5.72472 14.2356 4.52539 13.8265 3.5625 13.2649C3.78183 13.9346 4.0665 14.6089 4.42583 15.2685C5.43617 15.7134 6.64094 16.0338 7.99039 16.2609C7.64919 15.7085 7.35194 15.1302 7.10139 14.5312ZM14.0003 16.6903C15.4586 16.6903 16.8314 16.635 18.1031 16.5145C18.4593 15.9724 18.7603 15.4124 19.0154 14.8493C17.4964 15.0429 15.8187 15.1347 14.0003 15.1347C12.1009 15.1347 10.3572 15.0344 8.78683 14.8213C9.04117 15.3867 9.34372 15.9475 9.69994 16.4919C11.0261 16.6273 12.4649 16.6903 14.0003 16.6903ZM20.6969 14.5716C20.4451 15.1683 20.1468 15.7443 19.8048 16.2944C21.2391 16.0665 22.5138 15.7359 23.5755 15.2677C23.9348 14.6082 24.2195 13.9338 24.4388 13.2642C23.4285 13.8537 22.1584 14.2745 20.6969 14.5716Z" fill="#D99E82"/>
<path d="M13.2223 6.26347C10.3865 6.30314 7.8922 6.56447 5.89954 7.14858C6.7322 6.24808 7.73172 5.51772 8.84265 4.99803C10.1781 4.82225 11.6489 4.73281 13.2223 4.71025V6.26347ZM14.7779 6.26347V4.70947C16.3505 4.73203 17.8213 4.82069 19.1575 4.99725C20.2683 5.51722 21.2678 6.24753 22.1006 7.14781C20.108 6.56447 17.6136 6.30314 14.7779 6.26347ZM7.13854 9.88947C7.38062 9.31924 7.66531 8.76805 7.9902 8.24058C6.65554 8.46458 5.46476 8.78114 4.46143 9.21825C5.23143 9.47647 6.13365 9.70281 7.13854 9.88947ZM14.0001 7.81125C15.4584 7.81125 16.8312 7.86647 18.1029 7.98703C18.4591 8.52914 18.7601 9.08914 19.0152 9.65225C17.4962 9.45858 15.8193 9.36681 14.0001 9.36681C12.1008 9.36681 10.357 9.46714 8.78665 9.68025C9.04098 9.11481 9.34354 8.55403 9.69976 8.00958C11.0259 7.87347 12.4648 7.81125 14.0001 7.81125ZM19.8046 8.20636C20.1539 8.76558 20.4463 9.34192 20.6913 9.91825C21.7631 9.72614 22.7268 9.49047 23.5388 9.21825C22.4841 8.75858 21.2233 8.43192 19.8046 8.20636Z" fill="#8A4633"/>
</svg>
