<?xml version="1.0" encoding="iso-8859-1"?>
<!-- Uploaded to: SVG Repo, www.svgrepo.com, Generator: SVG Repo Mixer Tools -->
<svg height="800px" width="800px" version="1.1" id="Layer_1" xmlns="http://www.w3.org/2000/svg" xmlns:xlink="http://www.w3.org/1999/xlink" 
	 viewBox="0 0 512 512" xml:space="preserve">
<path style="fill:#57D4D4;" d="M417.391,512H94.609c-27.619,0-50.087-22.468-50.087-50.087v-267.13
	c0-27.619,22.468-50.087,50.087-50.087h322.783c27.619,0,50.087,22.468,50.087,50.087v267.13
	C467.478,489.532,445.01,512,417.391,512z"/>
<path style="fill:#4DBFBF;" d="M417.391,144.696H256V512h161.391c27.619,0,50.087-22.468,50.087-50.087v-267.13
	C467.478,167.164,445.01,144.696,417.391,144.696z"/>
<path style="fill:#E6563A;" d="M256,455.635c-3.87,0-7.739-1.342-10.864-4.021c-12.918-11.07-24.995-20.858-36.027-29.798
	c-44.049-35.706-75.875-61.511-75.875-103.315c0-41.288,30.631-73.63,69.733-73.63c25.445,0,42.326,13.059,53.032,26.755
	c10.707-13.697,27.588-26.756,53.033-26.756c39.103,0,69.733,32.343,69.733,73.63c0,41.805-31.826,67.608-75.875,103.315
	c-11.032,8.94-23.109,18.728-36.027,29.798C263.739,454.293,259.87,455.635,256,455.635z"/>
<path style="fill:#D9472B;" d="M266.864,451.614c12.918-11.07,24.995-20.858,36.027-29.798
	c44.049-35.706,75.875-61.511,75.875-103.315c0-41.288-30.631-73.63-69.733-73.63c-25.445,0-42.326,13.059-53.032,26.755v184.009
	C259.87,455.635,263.739,454.293,266.864,451.614z"/>
<path style="fill:#FFC033;" d="M350.609,211.478c-9.223,0-16.696-7.473-16.696-16.696v-83.478c0-42.962-34.951-77.913-77.913-77.913
	s-77.913,34.951-77.913,77.913v83.478c0,9.223-7.473,16.696-16.696,16.696s-16.696-7.473-16.696-16.696v-83.478
	C144.696,49.929,194.625,0,256,0s111.304,49.929,111.304,111.304v83.478C367.304,204.005,359.831,211.478,350.609,211.478z"/>
<path style="fill:#F9A926;" d="M333.913,111.304v83.478c0,9.223,7.473,16.696,16.696,16.696s16.696-7.473,16.696-16.696v-83.478
	C367.304,49.929,317.375,0,256,0v33.391C298.962,33.391,333.913,68.342,333.913,111.304z"/>
</svg>