<svg width="18" height="31" viewBox="0 0 18 31" fill="none" xmlns="http://www.w3.org/2000/svg">
<g clip-path="url(#clip0_1052_338)">
<path d="M16.5 30.24H1.5C0.675 30.24 0 29.5596 0 28.728V3.02396C0 2.19236 0.675 1.51196 1.5 1.51196H16.5C17.325 1.51196 18 2.19236 18 3.02396V28.728C18 29.5596 17.325 30.24 16.5 30.24Z" fill="#8BC34A"/>
<g opacity="0.34">
<mask id="mask0_1052_338" style="mask-type:luminance" maskUnits="userSpaceOnUse" x="0" y="1" width="18" height="30">
<path d="M16.5 30.24H1.5C0.675 30.24 0 29.5596 0 28.728V3.02396C0 2.19236 0.675 1.51196 1.5 1.51196H16.5C17.325 1.51196 18 2.19236 18 3.02396V28.728C18 29.5596 17.325 30.24 16.5 30.24Z" fill="white"/>
</mask>
<g mask="url(#mask0_1052_338)">
<path d="M0 16.0879C0.24 17.8494 1.2525 23.4513 6.045 27.4279C7.8225 28.9021 9.63 29.7413 11.0475 30.2402H0V16.0879Z" fill="#78A340"/>
</g>
</g>
<path d="M12 6.804H6C5.55 6.804 5.25 6.5016 5.25 6.048V0.756C5.25 0.3024 5.55 0 6 0H12C12.45 0 12.75 0.3024 12.75 0.756V6.048C12.75 6.5016 12.45 6.804 12 6.804Z" fill="#8BC34A"/>
<path d="M13.4995 15.12H9.37451L11.0245 6.80396L4.49951 16.632H8.62451L6.97451 24.948L13.4995 15.12Z" fill="#FFEB3B"/>
<path d="M5.25 1.13403H12.75" stroke="#78A340" stroke-width="0.854089"/>
<path opacity="0.5" d="M12.2622 3.19035C12.2622 3.00135 14.0997 2.26803 15.6222 3.19035C15.8847 3.34911 16.6647 3.87831 16.9572 4.89135C17.3697 6.35043 16.4697 7.83975 16.1847 7.78683C15.9447 7.74147 16.2372 6.62259 15.5022 5.38275C15.2097 4.89135 14.8497 4.52847 14.7597 4.43775C14.3097 3.99171 13.8822 3.74979 13.7772 3.69687C12.8997 3.21303 12.2622 3.29619 12.2622 3.18279V3.19035Z" fill="#D6F99D"/>
</g>
<defs>
<clipPath id="clip0_1052_338">
<rect width="18" height="30.24" fill="white"/>
</clipPath>
</defs>
</svg>
