<svg width="33" height="41" viewBox="0 0 33 41" fill="none" xmlns="http://www.w3.org/2000/svg">
<path d="M20.6895 11.4568C20.6895 11.4568 21.7112 9.24653 21.2883 8.28232C20.9235 7.44972 19.4814 6.24375 18.7624 6.02916C16.5036 5.35536 13.4781 5.09643 13.0169 4.65438L11.7401 3.5185C11.5193 3.27959 11.173 3.24526 10.9166 3.43696C10.4976 3.75025 9.49841 4.67441 8.33265 5.93617C7.15366 7.21225 6.82587 7.72726 6.52981 8.19076C6.35137 8.46973 6.38177 8.84597 6.6025 9.08487C6.6025 9.08487 7.32549 9.89887 7.52903 10.1993C7.73258 10.4997 7.73126 10.8187 7.73126 10.8187C7.73126 10.8187 7.73919 15.2707 9.39532 17.4666C10.3285 18.6969 20.6895 11.4568 20.6895 11.4568Z" fill="#ADA29F"/>
<path d="M27.181 18.8714C21.3667 12.2893 21.676 11.2765 19.359 8.49686C18.5593 7.53694 18.0597 7.58272 17.2838 7.87027C16.6415 8.10774 16.582 8.90743 16.1657 9.30084C15.7493 9.69425 15.025 9.45964 14.3311 10.1764C13.6002 10.9303 13.7522 11.4896 13.3689 11.9245C12.8415 12.5239 12.408 12.1634 11.6929 12.9374C10.921 13.7728 11.2343 14.1433 10.884 14.5883C10.4161 15.1834 10.0606 14.9244 9.62177 15.531C9.11555 16.2334 9.38518 16.7084 9.82664 17.1719C10.7875 18.1776 13.9081 21.5924 14.8875 20.6382C15.3977 20.1403 15.4202 19.6754 15.3012 19.2233C15.2775 19.1318 15.4136 19.0846 15.4136 19.0846C15.4136 19.0846 16.512 20.1246 17.4054 19.2176C18.2196 18.3936 17.9526 17.4752 17.9526 17.4752C17.9526 17.4752 17.0301 16.0789 17.7068 16.6197C18.3835 17.1604 18.9426 17.262 19.4621 16.717C19.9802 16.1733 20.3529 15.2091 19.8454 14.5082L25.9914 20.7312C25.9914 20.7312 26.4699 21.3434 27.1809 20.7312C27.7255 20.2676 27.6303 19.7498 27.181 18.8714Z" fill="#ADA29F"/>
<path d="M14.1035 17.1864C14.3137 17.3395 15.297 18.3351 16.1614 18.9646C16.5844 19.2707 17.1356 19.4324 17.1356 19.4324C17.1356 19.4324 16.5276 19.8816 15.609 19.2908C15.038 18.9245 13.781 17.8902 13.6171 17.7128C13.4532 17.5355 13.7916 16.9604 14.1035 17.1864ZM6.46126 8.33399C6.46126 8.33399 7.7288 9.95483 7.81604 10.3068C7.90195 10.6572 8.0143 12.1751 8.30904 13.5527C8.61172 14.9733 9.13116 16.1335 9.34264 16.5426C9.69422 17.2179 11.4931 18.8215 13.1519 19.9989C13.6105 20.3237 13.9727 20.5411 14.1775 20.5883C14.7987 20.7314 15.0499 20.4452 15.0499 20.4452C15.0499 20.4452 14.8728 20.7543 14.4749 20.8873C13.9925 21.049 13.7942 20.9717 13.3766 20.7571C10.9908 19.534 8.89721 17.288 8.67913 16.9461C8.47029 16.6199 8.0817 15.6786 7.79092 14.0048C7.5279 12.4898 7.49486 10.7602 7.48164 10.6487C7.44595 10.3268 6.94502 9.53567 6.59211 9.11079C6.26433 8.71595 6.46126 8.33399 6.46126 8.33399ZM19.9469 8.53856C20.0134 8.50941 20.0868 8.50368 20.1565 8.52216C20.2263 8.54065 20.2889 8.58242 20.3355 8.64156C20.8219 9.26243 20.9726 9.49132 21.0532 9.87615C21.1417 10.301 20.9858 10.6472 20.9858 10.6472C20.5364 10.0178 20.2377 9.63438 19.8213 9.11794C19.7863 9.074 19.7614 9.02171 19.7486 8.96535C19.7358 8.90898 19.7355 8.85014 19.7477 8.79363C19.76 8.73712 19.7844 8.68455 19.819 8.64022C19.8536 8.59589 19.8975 8.56105 19.9469 8.53856Z" fill="#525252"/>
<path d="M16.1694 14.1951C16.0916 14.2393 16.0034 14.2895 15.9112 14.4235C15.8186 14.558 15.8636 14.7439 15.9482 14.8527L17.7371 16.9362C17.7371 16.9362 18.4694 17.2481 18.9611 16.9763C18.9611 16.9763 18.5209 16.8204 18.02 16.1981C17.4107 15.4384 16.9196 14.8827 16.5284 14.3248C16.4399 14.2003 16.2469 14.1517 16.1702 14.1946L16.1694 14.1951Z" fill="#525252"/>
<path d="M18.5023 12.1763C18.3874 12.0605 18.1666 12.0132 18.0596 12.1377L17.9287 12.2908C17.823 12.4138 17.8639 12.6642 17.9776 12.7786L22.6616 17.648C24.0058 19.0171 24.779 19.8197 25.7187 20.5793C26.4576 21.1759 26.7962 20.9873 27.1147 20.8027C27.1914 20.7598 27.3302 20.5038 27.2469 20.5166C27.0182 20.5495 26.4563 20.4334 26.1113 20.1544C25.3447 19.5364 18.5023 12.1763 18.5023 12.1763Z" fill="#525252"/>
<path d="M17.2877 23.5554C17.2877 23.5554 18.3094 21.3452 17.8864 20.381C17.5216 19.5484 16.0796 18.3424 15.3606 18.1278C13.1017 17.454 10.0763 17.1951 9.61501 16.753L8.33821 15.6171C8.11749 15.3782 7.77119 15.3439 7.51478 15.5356C7.09579 15.8489 6.09656 16.773 4.93079 18.0348C3.75181 19.3109 3.42402 19.8259 3.12795 20.2894C2.94952 20.5684 2.97991 20.9446 3.20064 21.1835C3.20064 21.1835 3.92363 21.9975 4.12718 22.2979C4.33072 22.5983 4.3294 22.9174 4.3294 22.9174C4.3294 22.9174 4.33733 27.3693 5.99346 29.5653C6.9266 30.7956 17.2877 23.5554 17.2877 23.5554Z" fill="#ADA29F"/>
<path d="M23.7786 30.9701C17.9643 24.388 18.2736 23.3751 15.9566 20.5955C15.157 19.6356 14.6574 19.6814 13.8815 19.9689C13.2391 20.2064 13.1797 21.0061 12.7633 21.3995C12.347 21.7929 11.6227 21.5583 10.9288 22.275C10.1978 23.0289 10.3498 23.5883 9.96653 24.0232C9.43916 24.6226 9.00564 24.2621 8.29058 25.036C7.51869 25.8715 7.83194 26.242 7.48168 26.6869C7.01379 27.282 6.65824 27.0231 6.21943 27.6296C5.7132 28.3321 5.98284 28.807 6.42429 29.2705C7.38519 30.2762 10.5058 33.691 11.4852 32.7368C11.9954 32.239 12.0179 31.774 11.8989 31.322C11.8751 31.2304 12.0112 31.1832 12.0112 31.1832C12.0112 31.1832 13.1096 32.2232 14.0031 31.3162C14.8173 30.4922 14.5503 29.5738 14.5503 29.5738C14.5503 29.5738 13.6277 28.1775 14.3045 28.7183C14.9812 29.2591 15.5403 29.3606 16.0597 28.8156C16.5778 28.272 16.9506 27.3078 16.443 26.6068L22.5891 32.8298C22.5891 32.8298 23.0675 33.4421 23.7786 32.8298C24.3232 32.3663 24.228 31.8484 23.7786 30.9701Z" fill="#ADA29F"/>
<path d="M10.7017 29.2848C10.9118 29.4379 11.8952 30.4335 12.7596 31.063C13.1825 31.3691 13.7337 31.5308 13.7337 31.5308C13.7337 31.5308 13.1257 31.98 12.2071 31.3892C11.6361 31.0229 10.3792 29.9886 10.2153 29.8112C10.0514 29.6338 10.3897 29.0588 10.7017 29.2848ZM3.05941 20.4324C3.05941 20.4324 4.32695 22.0532 4.41418 22.4051C4.50009 22.7556 4.61244 24.2735 4.90719 25.6511C5.20986 27.0717 5.7293 28.2319 5.94078 28.641C6.29236 29.3163 8.09124 30.9199 9.75001 32.0973C10.2087 32.422 10.5708 32.6395 10.7757 32.6867C11.3969 32.8298 11.648 32.5436 11.648 32.5436C11.648 32.5436 11.4709 32.8526 11.0731 32.9857C10.5906 33.1473 10.3924 33.0701 9.9747 32.8555C7.58898 31.6324 5.49536 29.3864 5.27727 29.0444C5.06844 28.7183 4.67985 27.777 4.38907 26.1032C4.12604 24.5882 4.093 22.8586 4.07978 22.7471C4.0441 22.4252 3.54316 21.6341 3.19026 21.2092C2.86247 20.8143 3.05941 20.4324 3.05941 20.4324ZM16.545 20.6369C16.6116 20.6078 16.6849 20.6021 16.7547 20.6206C16.8244 20.639 16.887 20.6808 16.9336 20.74C17.42 21.3608 17.5707 21.5897 17.6513 21.9745C17.7399 22.3994 17.5839 22.7456 17.5839 22.7456C17.1345 22.1162 16.8358 21.7328 16.4195 21.2163C16.3844 21.1724 16.3595 21.1201 16.3467 21.0637C16.3339 21.0074 16.3336 20.9485 16.3459 20.892C16.3581 20.8355 16.3826 20.7829 16.4172 20.7386C16.4518 20.6943 16.4956 20.6594 16.545 20.6369Z" fill="#525252"/>
<path d="M12.7675 26.2934C12.6898 26.3377 12.6015 26.3879 12.5093 26.5219C12.4168 26.6563 12.4617 26.8423 12.5463 26.951L14.3353 29.0346C14.3353 29.0346 15.0675 29.3465 15.5592 29.0747C15.5592 29.0747 15.1191 28.9188 14.6181 28.2965C14.0088 27.5368 13.5178 26.9811 13.1266 26.4232C13.038 26.2987 12.845 26.2501 12.7684 26.293L12.7675 26.2934Z" fill="#525252"/>
<path d="M15.1 24.275C14.985 24.1591 14.7643 24.1119 14.6572 24.2363L14.5264 24.3894C14.4206 24.5124 14.4616 24.7628 14.5753 24.8772L19.2592 29.7467C20.6034 31.1157 21.3766 31.9183 22.3164 32.6779C23.0552 33.2745 23.3938 33.0859 23.7124 32.9014C23.789 32.8585 23.9278 32.6024 23.8445 32.6153C23.6159 32.6482 23.0539 32.532 22.709 32.253C21.9424 31.635 15.1 24.275 15.1 24.275Z" fill="#525252"/>
<path d="M23.606 19.3472C23.606 19.3472 24.6277 17.1369 24.2048 16.1727C23.84 15.3401 22.398 14.1341 21.6789 13.9195C19.4201 13.2457 16.3947 12.9868 15.9334 12.5448L14.6566 11.4089C14.4358 11.17 14.0896 11.1356 13.8331 11.3273C13.4141 11.6406 12.4149 12.5648 11.2492 13.8266C10.0702 15.1026 9.74238 15.6176 9.44631 16.0811C9.26788 16.3601 9.29827 16.7363 9.519 16.9753C9.519 16.9753 10.242 17.7893 10.4455 18.0897C10.6491 18.3901 10.6478 18.7091 10.6478 18.7091C10.6478 18.7091 10.6557 23.1611 12.3118 25.357C13.245 26.5873 23.606 19.3472 23.606 19.3472Z" fill="#FFD29C"/>
<path d="M30.0975 26.762C24.2832 20.1799 24.5925 19.1671 22.2755 16.3875C21.4758 15.4276 20.9762 15.4733 20.2004 15.7609C19.558 15.9984 19.4985 16.7981 19.0822 17.1915C18.6658 17.5849 17.9415 17.3503 17.2476 18.067C16.5167 18.8209 16.6687 19.3802 16.2854 19.8151C15.758 20.4146 15.3245 20.0541 14.6094 20.828C13.8375 21.6635 14.1508 22.034 13.8005 22.4789C13.3326 23.074 12.9771 22.8151 12.5383 23.4216C12.0321 24.124 12.3017 24.599 12.7431 25.0625C13.704 26.0682 16.8246 29.483 17.804 28.5288C18.3142 28.0309 18.3367 27.566 18.2178 27.1139C18.194 27.0224 18.3301 26.9752 18.3301 26.9752C18.3301 26.9752 19.4285 28.0152 20.3219 27.1082C21.1361 26.2842 20.8691 25.3658 20.8691 25.3658C20.8691 25.3658 19.9466 23.9695 20.6233 24.5103C21.3 25.0511 21.8591 25.1526 22.3786 24.6076C22.8967 24.064 23.2694 23.0998 22.7619 22.3988L28.9079 28.6218C28.9079 28.6218 29.3864 29.2341 30.0975 28.6218C30.642 28.1583 30.5469 27.6404 30.0975 26.762Z" fill="#F9DDBD"/>
<path d="M17.02 25.0768C17.2302 25.2298 18.2135 26.2255 19.078 26.855C19.5009 27.1611 20.0521 27.3228 20.0521 27.3228C20.0521 27.3228 19.4441 27.772 18.5255 27.1812C17.9545 26.8149 16.6975 25.7806 16.5336 25.6032C16.3697 25.4258 16.7081 24.8507 17.02 25.0768ZM9.37777 16.2244C9.37777 16.2244 10.6453 17.8452 10.7325 18.1971C10.8185 18.5476 10.9308 20.0655 11.2255 21.4431C11.5282 22.8637 12.0477 24.0239 12.2591 24.433C12.6107 25.1082 14.4096 26.7119 16.0684 27.8893C16.527 28.214 16.8892 28.4315 17.094 28.4787C17.7152 28.6217 17.9664 28.3356 17.9664 28.3356C17.9664 28.3356 17.7893 28.6446 17.3914 28.7777C16.909 28.9393 16.7107 28.8621 16.2931 28.6475C13.9073 27.4244 11.8137 25.1783 11.5956 24.8364C11.3868 24.5103 10.9982 23.5689 10.7074 21.8952C10.4444 20.3802 10.4114 18.6506 10.3981 18.539C10.3625 18.2172 9.86152 17.4261 9.50862 17.0012C9.18083 16.6063 9.37777 16.2244 9.37777 16.2244ZM22.8634 16.4289C22.93 16.3998 23.0033 16.3941 23.073 16.4125C23.1428 16.431 23.2054 16.4728 23.252 16.5319C23.7384 17.1528 23.8891 17.3817 23.9697 17.7665C24.0582 18.1914 23.9023 18.5376 23.9023 18.5376C23.4529 17.9082 23.1542 17.5248 22.7378 17.0083C22.7028 16.9644 22.6779 16.9121 22.6651 16.8557C22.6523 16.7994 22.652 16.7405 22.6642 16.684C22.6765 16.6275 22.7009 16.5749 22.7355 16.5306C22.7701 16.4863 22.814 16.4514 22.8634 16.4289Z" fill="#EDBD82"/>
<path d="M19.0859 22.0854C19.0081 22.1297 18.9199 22.1799 18.8277 22.3139C18.7351 22.4483 18.7801 22.6343 18.8647 22.743L20.6536 24.8266C20.6536 24.8266 21.3859 25.1385 21.8776 24.8667C21.8776 24.8667 21.4374 24.7107 20.9365 24.0884C20.3272 23.3288 19.8361 22.7731 19.4449 22.2152C19.3564 22.0907 19.1634 22.0421 19.0867 22.085L19.0859 22.0854Z" fill="#EDBD82"/>
<path d="M21.4188 20.067C21.3039 19.9511 21.0831 19.9039 20.9761 20.0283L20.8452 20.1814C20.7395 20.3044 20.7804 20.5548 20.8941 20.6692L25.5781 25.5387C26.9223 26.9077 27.6955 27.7103 28.6352 28.4699C29.3741 29.0665 29.7127 28.8779 30.0312 28.6934C30.1079 28.6504 30.2467 28.3944 30.1634 28.4073C29.9347 28.4402 29.3728 28.324 29.0278 28.045C28.2612 27.427 21.4188 20.067 21.4188 20.067Z" fill="#EDBD82"/>
</svg>
